<svg xmlns="http://www.w3.org/2000/svg" xmlns:xlink="http://www.w3.org/1999/xlink" width="232.255" height="45.198" viewBox="0 0 232.255 45.198">
  <defs>
    <clipPath id="clip-path">
      <rect id="Rectangle_5" data-name="Rectangle 5" width="232.255" height="45.198" fill="none"/>
    </clipPath>
  </defs>
  <g id="Group_38" data-name="Group 38" transform="translate(0 0)">
    <g id="Group_3" data-name="Group 3" transform="translate(0 0)" clip-path="url(#clip-path)">
      <path id="Path_11" data-name="Path 11" d="M0,.768Q1.186.815,3.035.863t3.7.047q2.324,0,4.411-.047t2.94-.047q6.355,0,9.462,2.608a8.389,8.389,0,0,1,3.106,6.735,11.449,11.449,0,0,1-.617,3.581A9.133,9.133,0,0,1,23.9,17.2a11.032,11.032,0,0,1-4.15,2.585,19.2,19.2,0,0,1-6.711,1H8.3v-.949h4.268a7.141,7.141,0,0,0,4.577-1.281,6.216,6.216,0,0,0,2.134-3.367,17.773,17.773,0,0,0,.545-4.506q0-4.506-1.47-6.735T13.28,1.717a3.052,3.052,0,0,0-2.537.806A6.08,6.08,0,0,0,10.149,5.8V29.129a7.327,7.327,0,0,0,.379,2.7A2.038,2.038,0,0,0,12,33.019a14.481,14.481,0,0,0,3.13.332v1q-1.375-.095-3.557-.119T7.067,34.2q-1.992,0-3.842.024T0,34.346V33.4a8.88,8.88,0,0,0,2.348-.379A1.645,1.645,0,0,0,3.391,31.88a9.377,9.377,0,0,0,.261-2.561V5.8a9.339,9.339,0,0,0-.261-2.585A1.709,1.709,0,0,0,2.348,2.072,7.384,7.384,0,0,0,0,1.717Z" transform="translate(0 2.267)"/>
      <path id="Path_12" data-name="Path 12" d="M13.6,28.408a7.093,7.093,0,0,1-3.462-.783,5.142,5.142,0,0,1-2.134-2.134A6.366,6.366,0,0,1,7.3,22.479a5.543,5.543,0,0,1,.949-3.344,6.965,6.965,0,0,1,2.443-2.087,20.726,20.726,0,0,1,3.154-1.328q1.66-.545,3.13-1.043a9.649,9.649,0,0,0,2.419-1.162,2.047,2.047,0,0,0,.949-1.755V8.3a5.944,5.944,0,0,0-.451-2.49,3.192,3.192,0,0,0-1.328-1.47,4.42,4.42,0,0,0-2.205-.5,8.266,8.266,0,0,0-2.087.285,3.532,3.532,0,0,0-1.8,1.091,3.356,3.356,0,0,1,2.608,3.415,2.862,2.862,0,0,1-.972,2.3,3.63,3.63,0,0,1-2.443.83,2.871,2.871,0,0,1-2.371-1,3.584,3.584,0,0,1-.806-2.324,3.551,3.551,0,0,1,.664-2.205A6.418,6.418,0,0,1,11,4.647a9.642,9.642,0,0,1,3.035-1.281,16.2,16.2,0,0,1,4.031-.474,13.782,13.782,0,0,1,3.7.451,6.163,6.163,0,0,1,2.751,1.589,5.064,5.064,0,0,1,1.47,2.7,19.878,19.878,0,0,1,.332,3.936v13A3.616,3.616,0,0,0,26.6,26.25a.963.963,0,0,0,.9.5,1.839,1.839,0,0,0,.9-.237,6.605,6.605,0,0,0,.949-.664l.522.806a9.61,9.61,0,0,1-2.182,1.281,7.145,7.145,0,0,1-2.751.474,6.076,6.076,0,0,1-2.632-.474,3.007,3.007,0,0,1-1.423-1.375,5.176,5.176,0,0,1-.5-2.134,8.637,8.637,0,0,1-2.8,2.94A7.334,7.334,0,0,1,13.6,28.408m2.846-2.656a3.866,3.866,0,0,0,2.111-.617,6.063,6.063,0,0,0,1.779-1.85v-9.58a4.59,4.59,0,0,1-1.352,1.281q-.877.569-1.873,1.138a12.8,12.8,0,0,0-1.873,1.3,6.337,6.337,0,0,0-1.47,1.8,5.575,5.575,0,0,0-.593,2.727,4.007,4.007,0,0,0,.9,2.822,3.081,3.081,0,0,0,2.371.972" transform="translate(21.54 8.538)"/>
      <path id="Path_13" data-name="Path 13" d="M22.557,11.572V32.2a3.764,3.764,0,0,0,.735,2.7,3.524,3.524,0,0,0,2.49.711v1q-.854-.047-2.608-.119t-3.557-.071q-1.755,0-3.557.071t-2.7.119v-1a3.524,3.524,0,0,0,2.49-.711,3.764,3.764,0,0,0,.735-2.7V17.264a5.726,5.726,0,0,0-.688-3.154,2.844,2.844,0,0,0-2.537-1.02v-1q1.518.142,2.94.142a31.147,31.147,0,0,0,3.344-.166,21.089,21.089,0,0,0,2.917-.5M19.237,0a4.11,4.11,0,0,1,2.8.949,3.167,3.167,0,0,1,1.091,2.514,3.167,3.167,0,0,1-1.091,2.514,4.11,4.11,0,0,1-2.8.949,4.11,4.11,0,0,1-2.8-.949,3.167,3.167,0,0,1-1.091-2.514A3.167,3.167,0,0,1,16.439.949,4.11,4.11,0,0,1,19.237,0" transform="translate(39.431 0)"/>
      <path id="Path_14" data-name="Path 14" d="M34.081,2.892a8.177,8.177,0,0,1,3.2.522,5.749,5.749,0,0,1,1.968,1.328,5.1,5.1,0,0,1,1.209,2.324,16.272,16.272,0,0,1,.356,3.842V23.665a3.782,3.782,0,0,0,.735,2.7,3.535,3.535,0,0,0,2.494.711v1c-.573-.032-1.447-.071-2.632-.119s-2.332-.071-3.446-.071c-1.166,0-2.308.024-3.411.071s-1.929.087-2.462.119v-1a2.694,2.694,0,0,0,2.13-.711,4.285,4.285,0,0,0,.617-2.7V9.295a9.965,9.965,0,0,0-.237-2.3,2.831,2.831,0,0,0-.949-1.613,3.1,3.1,0,0,0-2.039-.593,4.67,4.67,0,0,0-2.771.854,5.71,5.71,0,0,0-1.9,2.348,7.963,7.963,0,0,0-.684,3.344V23.665a4.285,4.285,0,0,0,.617,2.7A2.694,2.694,0,0,0,29,27.08v1c-.534-.032-1.344-.071-2.415-.119s-2.17-.071-3.276-.071q-1.755,0-3.557.071t-2.7.119v-1a3.524,3.524,0,0,0,2.49-.711,3.764,3.764,0,0,0,.735-2.7V8.726a5.726,5.726,0,0,0-.688-3.154,2.844,2.844,0,0,0-2.537-1.02v-1Q18.569,3.7,20,3.7a32.183,32.183,0,0,0,3.34-.166,21.253,21.253,0,0,0,2.921-.5V7.777a7.4,7.4,0,0,1,3.272-3.794,9.668,9.668,0,0,1,4.553-1.091" transform="translate(50.339 8.538)"/>
      <path id="Path_15" data-name="Path 15" d="M33.476,3.082V32.06a3.141,3.141,0,0,0,1.162,2.869,5.951,5.951,0,0,0,3.2.735v1q-1.138-.047-3.2-.119c-1.375-.047-2.842-.071-4.387-.071-1.079,0-2.15.024-3.229.071s-1.893.087-2.466.119v-1A3.17,3.17,0,0,0,26.836,35a3.491,3.491,0,0,0,.664-2.466V8.773a5.892,5.892,0,0,0-.664-3.154A2.846,2.846,0,0,0,24.275,4.6v-1q1.518.142,2.94.142a32.009,32.009,0,0,0,3.367-.166,21.247,21.247,0,0,0,2.893-.5m7.446-.19a7.543,7.543,0,0,1,4.411,1.352A8.972,8.972,0,0,1,48.392,8.2a16.724,16.724,0,0,1,1.115,6.545,21.508,21.508,0,0,1-.711,5.715A13.044,13.044,0,0,1,46.684,24.9a9.478,9.478,0,0,1-3.438,2.846,10.458,10.458,0,0,1-4.648,1,8.039,8.039,0,0,1-3.557-.759,4.984,4.984,0,0,1-2.277-2.039l.474-.664A4.464,4.464,0,0,0,34.8,26.89a4.406,4.406,0,0,0,2.371.617,4.578,4.578,0,0,0,3.6-1.494,8.835,8.835,0,0,0,1.869-4.2,31.9,31.9,0,0,0,.549-6.26,30.507,30.507,0,0,0-.522-6.308,7.08,7.08,0,0,0-1.565-3.438,3.336,3.336,0,0,0-2.466-1.067A4.81,4.81,0,0,0,35.16,6.283a7.31,7.31,0,0,0-1.877,4.482L32.95,9.437a8.52,8.52,0,0,1,2.9-4.838,7.875,7.875,0,0,1,5.075-1.707" transform="translate(71.666 8.538)"/>
      <path id="Path_16" data-name="Path 16" d="M42.979,2.892a12.529,12.529,0,0,1,5.81,1.3,9.415,9.415,0,0,1,4.027,4.15A16.144,16.144,0,0,1,54.31,15.84a16.144,16.144,0,0,1-1.494,7.494,9.275,9.275,0,0,1-4.027,4.126,12.721,12.721,0,0,1-5.81,1.281,12.886,12.886,0,0,1-5.838-1.281,9.116,9.116,0,0,1-4.027-4.126,16.365,16.365,0,0,1-1.47-7.494,16.365,16.365,0,0,1,1.47-7.494A9.252,9.252,0,0,1,37.142,4.2a12.691,12.691,0,0,1,5.838-1.3m0,.949q-2.235,0-3.628,2.822t-1.4,9.177q0,6.355,1.4,9.153t3.628,2.8c1.45,0,2.656-.933,3.6-2.8S48,20.076,48,15.84s-.474-7.3-1.419-9.177-2.154-2.822-3.6-2.822" transform="translate(93.422 8.538)"/>
      <path id="Path_17" data-name="Path 17" d="M47.372,11.572V32.2a3.764,3.764,0,0,0,.735,2.7,3.524,3.524,0,0,0,2.49.711v1q-.854-.047-2.608-.119t-3.553-.071q-1.761,0-3.561.071t-2.7.119v-1a3.535,3.535,0,0,0,2.494-.711,3.765,3.765,0,0,0,.731-2.7V17.264a5.691,5.691,0,0,0-.688-3.154,2.844,2.844,0,0,0-2.537-1.02v-1q1.524.142,2.94.142a31.274,31.274,0,0,0,3.348-.166,21.131,21.131,0,0,0,2.913-.5M44.052,0a4.11,4.11,0,0,1,2.8.949,3.155,3.155,0,0,1,1.091,2.514A3.155,3.155,0,0,1,46.85,5.976a4.6,4.6,0,0,1-5.6,0,3.164,3.164,0,0,1-1.087-2.514A3.164,3.164,0,0,1,41.254.949,4.117,4.117,0,0,1,44.052,0" transform="translate(112.691 0)"/>
      <path id="Path_18" data-name="Path 18" d="M58.9,2.892a8.212,8.212,0,0,1,3.2.522,5.827,5.827,0,0,1,1.968,1.328,5.1,5.1,0,0,1,1.209,2.324,16.487,16.487,0,0,1,.356,3.842V23.665a3.764,3.764,0,0,0,.735,2.7,3.524,3.524,0,0,0,2.49.711v1q-.854-.047-2.632-.119t-3.442-.071q-1.755,0-3.411.071t-2.466.119v-1a2.709,2.709,0,0,0,2.134-.711,4.289,4.289,0,0,0,.613-2.7V9.295a10.2,10.2,0,0,0-.233-2.3,2.874,2.874,0,0,0-.949-1.613,3.113,3.113,0,0,0-2.039-.593,4.691,4.691,0,0,0-2.774.854,5.733,5.733,0,0,0-1.9,2.348,7.9,7.9,0,0,0-.688,3.344V23.665a4.285,4.285,0,0,0,.617,2.7,2.7,2.7,0,0,0,2.134.711v1q-.806-.047-2.419-.119t-3.272-.071c-1.174,0-2.356.024-3.557.071s-2.1.087-2.707.119v-1a3.535,3.535,0,0,0,2.494-.711,3.764,3.764,0,0,0,.735-2.7V8.726a5.726,5.726,0,0,0-.688-3.154,2.847,2.847,0,0,0-2.541-1.02v-1q1.524.142,2.944.142a32.26,32.26,0,0,0,3.344-.166,21.088,21.088,0,0,0,2.917-.5V7.777a7.422,7.422,0,0,1,3.272-3.794A9.679,9.679,0,0,1,58.9,2.892" transform="translate(123.603 8.538)"/>
      <path id="Path_19" data-name="Path 19" d="M59.012,1.092V8.917h6.071v.949H59.012V28.742a3.707,3.707,0,0,0,.617,2.419,2.2,2.2,0,0,0,1.755.711,2.877,2.877,0,0,0,1.992-.83,7.075,7.075,0,0,0,1.613-2.774l.854.379a9.4,9.4,0,0,1-2.205,3.865,5.58,5.58,0,0,1-4.2,1.541,8.051,8.051,0,0,1-2.727-.4,5.418,5.418,0,0,1-1.921-1.162,5.524,5.524,0,0,1-1.4-2.608,18.329,18.329,0,0,1-.356-4.031V9.866H48.863V8.917h4.174V2.325a19.6,19.6,0,0,0,3.178-.332,12.121,12.121,0,0,0,2.8-.9" transform="translate(144.257 3.224)"/>
      <path id="Path_20" data-name="Path 20" d="M69.065,12.671a6.895,6.895,0,1,0-6.9,6.9,6.9,6.9,0,0,0,6.9-6.9" transform="translate(163.19 17.046)" fill="#d6f9f1"/>
    </g>
  </g>
</svg>
